<svg width="374" height="405" viewBox="0 0 374 405" fill="none" xmlns="http://www.w3.org/2000/svg">
<path d="M28.8135 229.079L30.4248 142.067C30.4248 124.522 30.0667 108.856 29.3506 95.0703C28.8135 81.1055 27.2021 71.7061 24.5166 66.8721C22.0101 61.859 19.5036 58.6364 16.9971 57.2041C14.4906 55.5928 11.984 54.3395 9.47754 53.4443C6.97103 52.5492 5.53874 52.1016 5.18066 52.1016C2.31608 51.3854 0.883789 46.641 0.883789 37.8682C0.883789 28.9163 1.24186 23.3662 1.95801 21.2178C64.2627 7.43197 111.349 0.539062 143.218 0.539062C219.308 0.539062 278.39 18.8903 320.464 55.5928C355.913 86.387 373.638 129.714 373.638 185.573C373.638 230.332 362.985 269.452 341.68 302.932C320.374 336.232 291.012 361.566 253.594 378.933C216.354 396.12 173.564 404.714 125.225 404.714C98.7272 404.714 73.9307 402.476 50.835 398C39.0186 393.166 32.3047 380.812 30.6934 360.939C29.4401 345.542 28.8135 322.357 28.8135 291.384V229.079ZM111.26 126.223L108.574 289.504V307.766C108.574 341.962 111.707 361.566 117.974 366.579C124.419 367.653 131.312 368.19 138.652 368.19C145.993 368.19 155.84 367.922 168.193 367.385C180.547 366.669 193.706 362.819 207.671 355.837C221.815 348.854 234.795 338.828 246.611 325.759C258.428 312.689 267.827 295.323 274.81 273.659C281.792 251.817 285.283 228.452 285.283 203.566C285.283 178.501 282.419 156.838 276.689 138.576C271.139 120.314 263.799 105.186 254.668 93.1904C245.716 81.195 235.332 71.0794 223.516 62.8438C200.957 47.2676 177.772 39.4795 153.96 39.4795C130.148 39.4795 113.766 40.7327 104.814 43.2393C109.111 62.0381 111.26 84.3281 111.26 110.109V126.223Z" fill="#B22166"/>
</svg>
